<?xml version="1.0" encoding="utf-8"?>
<!-- Generator: Adobe Illustrator 24.1.0, SVG Export Plug-In . SVG Version: 6.00 Build 0)  -->
<svg version="1.1" id="Layer_1" xmlns="http://www.w3.org/2000/svg" xmlns:xlink="http://www.w3.org/1999/xlink" x="0px" y="0px"
	 viewBox="0 0 143 144" style="enable-background:new 0 0 143 144;" xml:space="preserve">
<style type="text/css">
	.st0{opacity:0.8;fill:#3AB54A;}
	.st1{fill:#FFFFFF;}
</style>
<circle class="st0" cx="71.2" cy="72" r="70"/>
<g>
	<path class="st1" d="M68.8,42l2.4,1.1c0.6,0.3,1,0.9,1,1.5c0,0.6-0.3,1-0.7,1.4c-0.4,0.3-1,0.4-1.5,0.2L68,45.6
		c-0.6-0.2-1.3,0.1-1.5,0.7c-0.2,0.6,0.1,1.3,0.7,1.5l1.9,0.7c0.1,0,0.1,0,0.2,0.1v0.9c0,0.6,0.5,1.2,1.2,1.2c0.6,0,1.2-0.5,1.2-1.2
		v-1c0.4-0.1,0.8-0.3,1.1-0.6c1.1-0.8,1.7-2,1.7-3.3c0-1.6-0.9-3-2.3-3.6l-2.4-1.1c-0.6-0.3-1-0.9-1-1.5c0-0.6,0.3-1,0.7-1.4
		c0.4-0.3,1-0.4,1.5-0.2l1.9,0.7c0.6,0.2,1.3-0.1,1.5-0.7c0.2-0.6-0.1-1.3-0.7-1.5l-1.9-0.7c-0.1,0-0.1,0-0.2-0.1v-1
		c0-0.6-0.5-1.2-1.2-1.2c-0.6,0-1.2,0.5-1.2,1.2v1c-0.4,0.1-0.8,0.3-1.1,0.6c-1.1,0.8-1.7,2-1.7,3.3C66.5,39.9,67.4,41.3,68.8,42z"
		/>
	<path class="st1" d="M129.9,68.8c-1.4-0.3-2.8-0.4-4.1-0.4c-4.8,0-7.6,1.8-9,3.4l-0.2,0.2l-0.3,0c-1.8-0.2-3.3-0.2-4.1-0.3l-0.4,0
		l-0.1-0.4c-1.8-6.8-4.7-12.5-8.7-16.9c-3.3-3.7-7.5-6.6-12.3-8.5l-0.4-0.1l0-0.4c0-0.2,0-0.4,0-0.6c0-11-8.9-19.9-19.9-19.9
		c-9.7,0-18.2,7.3-19.7,16.9l-0.1,0.9l-0.7-0.5c-2.5-1.8-5.3-2.8-8.2-3c-0.3,0-0.5,0-0.8,0c-3.2,0-5.3,1-5.5,1.1
		c-0.5,0.3-0.9,0.7-1.1,1.3C34,42,34,42.7,34.3,43.2l4.9,9.6l-0.4,0.3c-1.9,1.3-3.8,3.4-5.4,6.1c-1,1.6-1.8,3.2-2.2,4.2l-0.1,0.2
		l-8.6,3.8c-0.9,0.4-1.4,1.3-1.3,2.3l1.4,13.8c0.1,0.9,0.8,1.7,1.7,1.9l5.3,1.4l0.1,0.3c1,2.3,3.3,5,7.1,8.1
		c2.2,1.8,4.4,3.3,5.5,4.1l0.2,0.1l1.6,12.4c0.1,1.1,1.1,1.9,2.2,1.9h14.3c1.1,0,2-0.8,2.2-1.9l0.8-5.1l0.6,0.1
		c2,0.5,4.1,0.7,6.3,0.7c3.3,0,6.1-0.5,8-0.9l0.5-0.1l1.6,4.3c0.3,0.9,1.2,1.5,2.1,1.5h13.1c1.1,0,2-0.8,2.2-1.9l1.8-12.5l0.3-0.1
		c1.8-0.9,4.4-2.4,6.8-4.9c3-3,6.4-8.3,5.8-16l0-0.6c0,0,1.1,0.1,1.2,0.1l0.6,0l-0.1,0.6c-0.3,2.4,0.6,4.6,2.2,5.7
		c0.4,0.3,1.4,0.9,2.9,0.9c1.5,0,3.1-0.7,4.7-2c2-1.7,2.7-3.5,2.1-5.3c-0.3-0.9-1-1.6-1.9-2.2l-1.4-0.9l1.6-0.2
		c0.5-0.1,1-0.1,1.5-0.1c1,0,2.1,0.1,3.2,0.3c0.1,0,0.3,0,0.4,0c1.1,0,2-0.8,2.2-1.8C131.9,70.1,131.1,69,129.9,68.8z M70.4,29.3
		c8.5,0,15.4,6.9,15.4,15.4c0,3.8-1.3,7.2-3.7,10.1l-0.2,0.3L81.5,55c-3.5-1.1-7.2-1.6-10.9-1.6c-2.6,0-5.2,0.3-7.7,0.8
		c-1.2,0.2-2.4,0.6-3.6,0.9L59,55.1l-0.2-0.3c-2.4-2.8-3.8-6.4-3.8-10.1C54.9,36.2,61.9,29.3,70.4,29.3z M103.8,89.5
		c-3.1,3.2-6.8,4.7-6.8,4.7c-0.8,0.3-1.3,1-1.4,1.8l-1.7,11.8h-9.7l-1.8-4.8c-0.3-0.9-1.2-1.5-2.1-1.5c-0.2,0-0.5,0-0.7,0.1
		c0,0-4.1,1.4-9.1,1.4c-2.9,0-5.6-0.5-7.9-1.4c-0.3-0.1-0.5-0.1-0.8-0.1c-0.4,0-0.8,0.1-1.1,0.3c-0.6,0.3-1,0.9-1.1,1.6l-0.9,5.8
		H48.2l-1.5-11.5c-0.1-0.7-0.5-1.2-1-1.6c-0.1-0.1-3.1-2-6.2-4.5c-5.3-4.4-5.9-6.5-5.9-7c-0.1-0.9-0.8-1.7-1.7-1.9l-5.1-1.3
		l-1.1-10.6l7.9-3.5c0.5-0.2,1-0.7,1.2-1.3c0.9-2.3,4-8.6,8.1-10.1c0.6-0.2,1.1-0.7,1.3-1.3c0.2-0.6,0.2-1.3-0.1-1.8l-4.7-9.2l0.9,0
		c0.2,0,0.3,0,0.5,0c0.3,0,0.5,0,0.8,0c3.3,0.3,6.4,2.2,9.1,5.6c0.1,0.1,0.1,0.2,0.2,0.2l0.1,0.1l0,0.2c0.6,2.4,1.6,4.6,3.1,6.6
		l0.4,0.5l-0.6,0.3c-1.7,0.8-2.6,1.4-2.7,1.4c-1,0.7-1.3,2-0.7,3.1c0.4,0.6,1.1,1,1.9,1c0.4,0,0.8-0.1,1.2-0.4c0.1,0,7.1-4.5,17-4.5
		c5.8,0,11.3,1.5,16.5,4.5c0.3,0.2,0.7,0.3,1.1,0.3c0.8,0,1.5-0.4,1.9-1.1c0.3-0.5,0.4-1.1,0.2-1.7c-0.2-0.6-0.5-1.1-1-1.4
		c-0.8-0.5-1.7-0.9-2.6-1.4l-0.6-0.3l0.4-0.5c1.2-1.7,2.1-3.5,2.7-5.4l0.2-0.6l0.6,0.3c9.1,4.2,15,12.1,17.6,23.5
		C109.1,80.1,107.8,85.3,103.8,89.5z"/>
</g>
</svg>
