<?xml version="1.0" encoding="utf-8"?>
<!-- Generator: Adobe Illustrator 24.1.0, SVG Export Plug-In . SVG Version: 6.00 Build 0)  -->
<svg version="1.1" id="Layer_1" xmlns="http://www.w3.org/2000/svg" xmlns:xlink="http://www.w3.org/1999/xlink" x="0px" y="0px"
	 viewBox="0 0 143 144" style="enable-background:new 0 0 143 144;" xml:space="preserve">
<style type="text/css">
	.st0{opacity:0.8;fill:#3AB54A;}
	.st1{fill:#FFFFFF;}
</style>
<circle class="st0" cx="71.3" cy="73.1" r="70"/>
<path class="st1" d="M57.8,61.5h38.4c1,0,1.7-0.8,1.7-1.7c0-1-0.8-1.7-1.7-1.7H57.8c-1,0-1.7,0.8-1.7,1.7
	C56.1,60.8,56.8,61.5,57.8,61.5z"/>
<path class="st1" d="M57.8,76.1h38.4c1,0,1.7-0.8,1.7-1.7c0-1-0.8-1.7-1.7-1.7H57.8c-1,0-1.7,0.8-1.7,1.7
	C56.1,75.4,56.8,76.1,57.8,76.1z"/>
<path class="st1" d="M80.3,90.8H57.8c-1,0-1.7,0.8-1.7,1.7c0,1,0.8,1.7,1.7,1.7h22.5c1,0,1.7-0.8,1.7-1.7
	C82,91.6,81.3,90.8,80.3,90.8z"/>
<path class="st1" d="M39.9,103.4h-2.6c-0.3,0-0.5-0.2-0.5-0.5v-71c0-0.3,0.2-0.5,0.5-0.5h42.3H83h10.9c0.3,0,0.5,0.2,0.5,0.5v2h5.3
	v-2c0-3.2-2.6-5.8-5.8-5.8H82.7h-3H37.3c-3.2,0-5.8,2.6-5.8,5.8v71c0,3.2,2.6,5.8,5.8,5.8h2.6V103.4z"/>
<path class="st1" d="M100.1,95.3l2.5,1.2c0.6,0.3,1,0.9,1,1.6c0,0.6-0.3,1.1-0.7,1.4c-0.5,0.3-1,0.4-1.6,0.2l-2-0.7
	c-0.6-0.2-1.3,0.1-1.6,0.7c-0.2,0.6,0.1,1.3,0.7,1.6l2,0.7c0.1,0,0.1,0,0.2,0.1v1c0,0.7,0.5,1.2,1.2,1.2c0.7,0,1.2-0.5,1.2-1.2v-1
	c0.4-0.1,0.8-0.3,1.2-0.6c1.1-0.8,1.8-2.1,1.8-3.4c0-1.6-0.9-3.1-2.4-3.8l-2.5-1.2c-0.6-0.3-1-0.9-1-1.6c0-0.6,0.3-1.1,0.7-1.4
	c0.5-0.3,1-0.4,1.6-0.2l2,0.7c0.6,0.2,1.3-0.1,1.6-0.7c0.2-0.6-0.1-1.3-0.7-1.6l-2-0.7c-0.1,0-0.1,0-0.2-0.1v-1
	c0-0.7-0.5-1.2-1.2-1.2c-0.7,0-1.2,0.5-1.2,1.2v1c-0.4,0.1-0.8,0.3-1.2,0.6c-1.1,0.8-1.8,2.1-1.8,3.4
	C97.7,93.1,98.6,94.6,100.1,95.3z"/>
<path class="st1" d="M102,79c-8.8,0-15.9,7.1-15.9,15.9c0,8.8,7.1,15.9,15.9,15.9s15.9-7.1,15.9-15.9C117.9,86.1,110.8,79,102,79z
	 M102,107c-6.7,0-12.1-5.4-12.1-12.1c0-6.7,5.4-12.1,12.1-12.1s12.1,5.4,12.1,12.1C114.1,101.6,108.7,107,102,107z"/>
<path class="st1" d="M105.6,110.3v4.3c0,0.3-0.2,0.5-0.5,0.5H48.5c-0.3,0-0.5-0.2-0.5-0.5v-71c0-0.3,0.2-0.5,0.5-0.5h42.3h3.4h10.9
	c0.3,0,0.5,0.2,0.5,0.5v35.9c1.9,0.5,3.7,1.3,5.3,2.3V43.6c0-3.2-2.6-5.8-5.8-5.8H93.8h-3H48.5c-3.2,0-5.8,2.6-5.8,5.8v71
	c0,3.2,2.6,5.8,5.8,5.8h56.6c3.2,0,5.8-2.6,5.8-5.8V108C109.3,109.1,107.5,109.9,105.6,110.3z"/>
</svg>
