<?xml version="1.0" encoding="utf-8"?>
<!-- Generator: Adobe Illustrator 24.1.0, SVG Export Plug-In . SVG Version: 6.00 Build 0)  -->
<svg version="1.1" id="Layer_1" xmlns="http://www.w3.org/2000/svg" xmlns:xlink="http://www.w3.org/1999/xlink" x="0px" y="0px"
	 viewBox="0 0 143 144" style="enable-background:new 0 0 143 144;" xml:space="preserve">
<style type="text/css">
	.st0{opacity:0.8;fill:#3AB54A;}
	.st1{fill:#FFFFFF;}
</style>
<circle class="st0" cx="71.2" cy="72" r="70"/>
<path class="st1" d="M122.4,70.4c0,5.9-1,11.7-2.9,17.3c-1.9,5.5-4.8,10.7-8.4,15.3c-0.6,0.8-1.4,1.2-2.4,1.3
	c-1,0.1-1.9-0.2-2.6-0.7c-0.9-0.7-1.4-1.7-1.4-2.8c0-0.8,0.3-1.6,0.8-2.2c3.2-4,5.6-8.4,7.3-13.3c1.6-4.7,2.5-9.8,2.5-14.9
	c0-12.1-4.7-23.5-13.3-32.1S81.9,25.1,69.8,25.1c-12.1,0-23.5,4.7-32.1,13.3S24.5,58.3,24.5,70.4c0,12.1,4.7,23.5,13.3,32.1
	c8.6,8.6,19.9,13.3,32.1,13.3h1.5v-9.2l18.1,12.8l-18.1,12.8v-9.3h-1.5c-14,0-27.2-5.5-37.1-15.4c-9.9-9.9-15.4-23.1-15.4-37.1
	c0-14,5.5-27.2,15.4-37.1c9.9-9.9,23.1-15.4,37.1-15.4c14,0,27.2,5.5,37.1,15.4C116.9,43.2,122.4,56.4,122.4,70.4z"/>
<g>
	<path class="st1" d="M61.9,55.5V48c0-4.2,3.4-7.6,7.6-7.6h1.8c4.2,0,7.6,3.4,7.6,7.6v7.5c1.9,0.7,3.9,1.4,6.1,2V48
		c0-7.5-6.1-13.7-13.7-13.7h-1.8c-7.5,0-13.7,6.1-13.7,13.7v9.5C58,56.9,60.1,56.2,61.9,55.5z"/>
	<path class="st1" d="M90.8,63.9c-9.4-1-20.3-6.4-20.3-6.4s-11,5.4-20.3,6.4c1.5,8.7-4.7,35.1,20.3,35.1
		C95.5,99.1,89.2,72.6,90.8,63.9z M80.9,90.2c-2.3,2.3-5.8,3.5-10.5,3.5c-4.7,0-8.2-1.1-10.5-3.5c-4.3-4.3-4.3-12.4-4.3-18.4
		c0-1.4,0-2.7,0-3.8c6.1-1.1,12.3-3.7,14.8-4.9c2.5,1.1,8.7,3.8,14.8,4.9c0,1.2,0,2.4,0,3.8C85.2,77.8,85.2,85.9,80.9,90.2z"/>
	<path class="st1" d="M74.3,75.1c0-2.1-1.7-3.9-3.9-3.9c-2.1,0-3.9,1.7-3.9,3.9c0,1.3,0.6,2.4,1.5,3.1V83c0,1.3,1,2.3,2.3,2.3
		c1.3,0,2.3-1,2.3-2.3v-4.7C73.7,77.5,74.3,76.4,74.3,75.1z"/>
</g>
</svg>
