<?xml version="1.0" encoding="utf-8"?>
<!-- Generator: Adobe Illustrator 24.1.0, SVG Export Plug-In . SVG Version: 6.00 Build 0)  -->
<svg version="1.1" id="Layer_1" xmlns="http://www.w3.org/2000/svg" xmlns:xlink="http://www.w3.org/1999/xlink" x="0px" y="0px"
	 viewBox="0 0 143 144" style="enable-background:new 0 0 143 144;" xml:space="preserve">
<style type="text/css">
	.st0{opacity:0.8;fill:#3AB54A;}
	.st1{fill:#FFFFFF;}
</style>
<circle class="st0" cx="71.3" cy="71" r="70"/>
<g>
	<path class="st1" d="M96.5,71.3c-1.3,0-2.4-1.1-2.4-2.4V47.4h-10v6.8l-13-9.2l13-9.2v6.8h12.4c1.3,0,2.4,1.1,2.4,2.4v23.9
		C98.9,70.2,97.9,71.3,96.5,71.3z"/>
	<g>
		<path class="st1" d="M45.1,41.9l2.6,1.2c0.6,0.3,1.1,1,1.1,1.7c0,0.6-0.3,1.1-0.8,1.5c-0.5,0.3-1.1,0.4-1.7,0.2l-2.1-0.7
			c-0.7-0.2-1.4,0.1-1.6,0.8c-0.2,0.7,0.1,1.4,0.8,1.6l2.1,0.7c0.1,0,0.1,0,0.2,0.1v1c0,0.7,0.6,1.3,1.3,1.3c0.7,0,1.3-0.6,1.3-1.3
			v-1c0.4-0.1,0.9-0.3,1.3-0.6c1.2-0.8,1.9-2.2,1.9-3.6c0-1.7-1-3.3-2.5-4l-2.6-1.2c-0.6-0.3-1.1-1-1.1-1.7c0-0.6,0.3-1.1,0.8-1.5
			c0.5-0.3,1.1-0.4,1.7-0.2l2.1,0.7c0.7,0.2,1.4-0.1,1.6-0.8c0.2-0.7-0.1-1.4-0.8-1.6l-2.1-0.7c-0.1,0-0.1,0-0.2-0.1v-1.1
			c0-0.7-0.6-1.3-1.3-1.3c-0.7,0-1.3,0.6-1.3,1.3v1.1c-0.4,0.1-0.9,0.3-1.3,0.6c-1.2,0.8-1.9,2.2-1.9,3.6
			C42.5,39.6,43.5,41.2,45.1,41.9z"/>
		<path class="st1" d="M34.7,65.6c-5.1,0-9.2-4.1-9.2-9.2V27.2c0-1.2,1-2.1,2.1-2.1h39c1.2,0,2.1,1,2.1,2.1v29.2
			c0,5.1-4.1,9.2-9.2,9.2H34.7z M29.8,54.3h34.8V29.3H29.8V54.3z"/>
	</g>
	<g>
		<path class="st1" d="M94.4,92.9l2.6,1.2c0.6,0.3,1.1,1,1.1,1.7c0,0.6-0.3,1.1-0.8,1.5c-0.5,0.3-1.1,0.4-1.7,0.2l-2.1-0.7
			c-0.7-0.2-1.4,0.1-1.6,0.8c-0.2,0.7,0.1,1.4,0.8,1.6l2.1,0.7c0.1,0,0.1,0,0.2,0.1v1c0,0.7,0.6,1.3,1.3,1.3c0.7,0,1.3-0.6,1.3-1.3
			v-1c0.4-0.1,0.9-0.3,1.3-0.6c1.2-0.8,1.9-2.2,1.9-3.6c0-1.7-1-3.3-2.5-4l-2.6-1.2c-0.6-0.3-1.1-1-1.1-1.7c0-0.6,0.3-1.1,0.8-1.5
			c0.5-0.3,1.1-0.4,1.7-0.2l2.1,0.7c0.7,0.2,1.4-0.1,1.6-0.8c0.2-0.7-0.1-1.4-0.8-1.6l-2.1-0.7c-0.1,0-0.1,0-0.2-0.1v-1.1
			c0-0.7-0.6-1.3-1.3-1.3c-0.7,0-1.3,0.6-1.3,1.3v1.1c-0.4,0.1-0.9,0.3-1.3,0.6c-1.2,0.8-1.9,2.2-1.9,3.6
			C91.8,90.6,92.8,92.2,94.4,92.9z"/>
		<path class="st1" d="M84,116.6c-5.1,0-9.2-4.1-9.2-9.2V78.2c0-1.2,1-2.1,2.1-2.1h39c1.2,0,2.1,1,2.1,2.1v29.2
			c0,5.1-4.1,9.2-9.2,9.2H84z M79.1,105.2h34.8V80.3H79.1V105.2z"/>
	</g>
	<path class="st1" d="M59.2,98.4H46.8c-1.3,0-2.4-1.1-2.4-2.4V72.1c0-1.3,1.1-2.4,2.4-2.4c1.3,0,2.4,1.1,2.4,2.4v21.5h10v-6.8
		l13,9.2l-13,9.2V98.4z"/>
</g>
</svg>
