<?xml version="1.0" encoding="utf-8"?>
<!-- Generator: Adobe Illustrator 24.1.0, SVG Export Plug-In . SVG Version: 6.00 Build 0)  -->
<svg version="1.1" id="Layer_1" xmlns="http://www.w3.org/2000/svg" xmlns:xlink="http://www.w3.org/1999/xlink" x="0px" y="0px"
	 viewBox="0 0 143 144" style="enable-background:new 0 0 143 144;" xml:space="preserve">
<style type="text/css">
	.st0{opacity:0.8;fill:#3AB54A;}
	.st1{fill:#FFFFFF;}
</style>
<circle class="st0" cx="71.2" cy="72" r="70"/>
<g>
	<path class="st1" d="M58.6,87.5"/>
	<path class="st1" d="M39.2,41.2c0.2,0.1,0.4,0.1,0.6,0.1c0.4,0,0.9-0.2,1.2-0.5c0.3-0.3,0.5-0.7,0.5-1.2c0-0.4-0.2-0.9-0.5-1.2
		c-0.1-0.2-0.3-0.3-0.5-0.4c-0.6-0.3-1.4-0.1-1.9,0.4c-0.1,0.1-0.3,0.3-0.3,0.5c-0.1,0.2-0.1,0.4-0.1,0.6c0,0.5,0.2,0.9,0.5,1.2
		C38.8,41,39,41.2,39.2,41.2z"/>
	<path class="st1" d="M46,41.2c0.2,0.1,0.4,0.1,0.6,0.1c0.4,0,0.9-0.2,1.2-0.5c0.3-0.3,0.5-0.7,0.5-1.2c0-0.4-0.2-0.9-0.5-1.2
		c-0.1-0.2-0.3-0.3-0.5-0.4c-0.6-0.3-1.4-0.1-1.9,0.4c-0.1,0.1-0.3,0.3-0.3,0.5C45,39.2,45,39.5,45,39.7c0,0.5,0.2,0.9,0.5,1.2
		C45.6,41,45.8,41.2,46,41.2z"/>
	<path class="st1" d="M52.8,41.2c0.2,0.1,0.4,0.1,0.6,0.1c0.4,0,0.9-0.2,1.2-0.5c0.3-0.3,0.5-0.7,0.5-1.2c0-0.4-0.2-0.9-0.5-1.2
		c-0.1-0.2-0.3-0.3-0.5-0.4c-0.6-0.3-1.4-0.1-1.9,0.4c-0.1,0.1-0.3,0.3-0.3,0.5c-0.1,0.2-0.1,0.4-0.1,0.6c0,0.5,0.2,0.9,0.5,1.2
		C52.4,41,52.6,41.2,52.8,41.2z"/>
	<path class="st1" d="M106.6,30.3H35.4c-3.3,0-5.9,2.7-5.9,5.9v71.3c0,3.3,2.7,5.9,5.9,5.9h71.3c3.3,0,5.9-2.7,5.9-5.9V36.3
		C112.6,33,109.9,30.3,106.6,30.3z M107.5,42v1.9V49v2.1v56.5c0,0.5-0.4,0.9-0.9,0.9H35.4c-0.5,0-0.9-0.4-0.9-0.9V51.1V49v-5.1V42
		v-5.7c0-0.5,0.4-0.9,0.9-0.9h71.3c0.5,0,0.9,0.4,0.9,0.9V42z"/>
	<rect x="32.7" y="45.3" class="st1" width="77.4" height="2.2"/>
	<g>
		<path class="st1" d="M42.4,56.2h14.8c0.8,0,1.5-0.8,1.5-1.8c0-1-0.7-1.8-1.5-1.8H42.4c-0.8,0-1.5,0.8-1.5,1.8
			C40.9,55.4,41.6,56.2,42.4,56.2z"/>
		<path class="st1" d="M46.8,61.6c0,1,0.7,1.8,1.5,1.8H63c0.8,0,1.5-0.8,1.5-1.8c0-1-0.7-1.8-1.5-1.8H48.3
			C47.5,59.8,46.8,60.6,46.8,61.6z"/>
		<path class="st1" d="M42.4,70.6h8.9c0.8,0,1.5-0.8,1.5-1.8c0-1-0.7-1.8-1.5-1.8h-8.9c-0.8,0-1.5,0.8-1.5,1.8
			C40.9,69.8,41.6,70.6,42.4,70.6z"/>
	</g>
	<g>
		<path class="st1" d="M107.8,96.1h-22L72.4,74.5c0.7-0.4,1.5-0.7,2.2-1c0.1,0,0.2,0,0.2-0.1c0.1,0,0.2-0.1,0.2-0.1
			c1.5-0.6,3.1-1,4.7-1.3c0,0,0,0,0,0c0.1,0,0.2,0,0.3,0c0.1,0,0.2,0,0.3-0.1c1.5-0.2,3-0.4,4.6-0.4c0.1,0,0.2,0,0.3,0
			c0.1,0,0.2,0,0.3,0c0,0,0,0,0,0c0.1,0,0.2,0,0.2,0c1.7,0.1,3.3,0.3,4.9,0.6c0.1,0,0.1,0,0.2,0.1c0.1,0,0.1,0,0.2,0
			c1.7,0.4,3.3,0.9,4.8,1.6c0.1,0,0.1,0.1,0.2,0.1c0.1,0,0.1,0,0.2,0.1c1.5,0.7,3,1.5,4.4,2.5c0.1,0,0.1,0.1,0.2,0.1
			c0.1,0,0.1,0.1,0.2,0.1c2.6,1.8,4.9,4.1,6.7,6.8v-5.2c-1.2-1.3-2.4-2.4-3.7-3.4l3.3-4.7c0.5-0.7,0.3-1.7-0.4-2.3
			c-0.7-0.5-1.7-0.3-2.3,0.4l-3.3,4.7c-0.8-0.5-1.6-1-2.5-1.4l2.3-5.3c0.4-0.8,0-1.8-0.8-2.1c-0.8-0.4-1.8,0-2.1,0.8L96,70.3
			c-0.9-0.3-1.8-0.6-2.7-0.9l1.3-5.7c0.2-0.9-0.4-1.7-1.2-1.9c-0.9-0.2-1.7,0.4-1.9,1.2l-1.3,5.7c-0.9-0.2-1.9-0.3-2.8-0.3l0.1-5.8
			c0-0.9-0.7-1.6-1.6-1.7c-0.8,0.1-1.6,0.7-1.7,1.6L84,68.3c-1,0-1.9,0.1-2.9,0.2l-1-5.7c-0.2-0.9-1-1.5-1.9-1.3
			c-0.9,0.2-1.5,1-1.3,1.9l1,5.7c-0.9,0.2-1.9,0.5-2.8,0.8l-2.1-5.4c-0.3-0.8-1.3-1.3-2.1-0.9c-0.8,0.3-1.3,1.3-0.9,2.1l2.1,5.4
			c-0.9,0.4-1.7,0.8-2.5,1.3l-3.1-4.9c-0.5-0.8-1.5-1-2.2-0.5c-0.8,0.5-1,1.5-0.5,2.2l3.1,4.9c-0.8,0.6-1.5,1.1-2.2,1.8l-4-4.2
			c-0.6-0.7-1.7-0.7-2.3-0.1c-0.6,0.6-0.7,1.7-0.1,2.3l4,4.2c-0.7,0.7-1.3,1.4-1.9,2.2l-4.8-3.3c-0.7-0.5-1.7-0.3-2.3,0.4
			c-0.5,0.7-0.3,1.7,0.4,2.3l4.8,3.3c-0.5,0.8-1,1.6-1.4,2.5L51.8,83c-0.8-0.4-1.8,0-2.1,0.8c-0.4,0.8,0,1.8,0.8,2.1l5.3,2.3
			c-0.3,0.9-0.6,1.8-0.9,2.7l-5.7-1.3c-0.9-0.2-1.7,0.4-1.9,1.2c-0.2,0.9,0.4,1.7,1.2,1.9l5.7,1.3c-0.2,0.9-0.3,1.9-0.3,2.8L48.1,97
			c-1,0-1.6,0.7-1.7,1.6c0,0.9,0.7,1.6,1.6,1.7l5.8,0.1c0,1,0.1,1.9,0.2,2.9l-5.7,1c-0.9,0.2-1.5,1-1.3,1.9c0.1,0.8,0.8,1.3,1.6,1.3
			c0.1,0,0.2,0,0.3,0l5.7-1c0.2,0.7,0.3,1.4,0.5,2h3.4c-0.4-1.3-0.8-2.6-1-3.9c0-0.1,0-0.2,0-0.3c0-0.1,0-0.2-0.1-0.3
			c-0.2-1.5-0.4-3-0.4-4.6c0-0.1,0-0.2,0-0.4c0-0.1,0-0.2,0-0.3c0-0.1,0-0.2,0-0.3c0.1-1.7,0.3-3.4,0.6-5c0-0.1,0-0.1,0.1-0.2
			c0-0.1,0-0.1,0-0.2c0.4-1.7,0.9-3.3,1.6-4.9c0,0,0-0.1,0.1-0.1c0-0.1,0-0.1,0.1-0.2c0.7-1.6,1.6-3.1,2.5-4.5c0,0,0.1-0.1,0.1-0.1
			c0,0,0.1-0.1,0.1-0.1c1-1.4,2.1-2.7,3.4-3.9c0,0,0.1,0,0.1-0.1c0,0,0-0.1,0.1-0.1c1.2-1.1,2.5-2.1,3.8-3l13.5,21.7l-5.2,10.6h3.6
			l4.5-9.1h21.9V96.1z"/>
		<path class="st1" d="M107.8,107.6c0,0.3-0.1,0.6-0.2,0.9h0.2V107.6z"/>
	</g>
</g>
</svg>
