<?xml version="1.0" encoding="utf-8"?>
<!-- Generator: Adobe Illustrator 24.1.0, SVG Export Plug-In . SVG Version: 6.00 Build 0)  -->
<svg version="1.1" id="Layer_1" xmlns="http://www.w3.org/2000/svg" xmlns:xlink="http://www.w3.org/1999/xlink" x="0px" y="0px"
	 viewBox="0 0 143 144" style="enable-background:new 0 0 143 144;" xml:space="preserve">
<style type="text/css">
	.st0{fill:#6EC067;}
	.st1{fill:#FFFFFF;}
</style>
<circle class="st0" cx="71.6" cy="72.1" r="70"/>
<path class="st1" d="M71.4,107.8c-5.8,0-5.8-0.3-5.8-1.9v-4c0-1.2-0.9-2.3-2.2-2.7c-1-0.3-2-0.7-3.2-1.1c-0.9-0.4-1.7-0.7-2.4-1.1
	l5.4-5.4c2.6,1,5.3,1.6,8.2,1.6c12.2,0,22.1-9.9,22.1-22.1S83.6,49,71.4,49c-2.7,0-5.5,0.6-8.2,1.6l-5.5-5.5
	c0.7-0.4,1.5-0.7,2.4-1.1c1.1-0.5,2.2-0.9,3.2-1.2c1.3-0.4,2.2-1.4,2.2-2.7v-4c0-1.6,0-1.9,4.8-1.9l1,0c5.9,0,5.9,0.3,5.9,1.9v4
	c0,1.2,0.9,2.3,2.2,2.7c1,0.3,2.1,0.7,3.2,1.1c1.2,0.5,2.1,0.9,3,1.4c0.5,0.3,1,0.4,1.5,0.4c0.7,0,1.4-0.3,1.9-0.7l2.8-2.8
	c0.5-0.5,0.9-0.7,1.1-0.7c0.8,0,2.6,1.8,4.3,3.5c4.1,4.1,4,4.3,2.8,5.5l-2.8,2.8c-0.9,0.9-1,2.2-0.3,3.4c0.5,0.9,1,1.9,1.4,3
	c0.5,1.2,0.9,2.2,1.2,3.2c0.4,1.3,1.4,2.2,2.7,2.2h4c1.7,0,1.9,0,1.9,5.8c0,5.8-0.3,5.8-1.9,5.8h-4c-1.2,0-2.3,0.9-2.7,2.2
	c-0.3,1-0.6,2-1.1,3.2c-0.5,1.2-1,2.2-1.5,3.1c-0.6,1.2-0.5,2.6,0.3,3.4l2.8,2.8c1.2,1.2,1.3,1.4-2.8,5.5c-1.7,1.7-3.5,3.5-4.3,3.5
	c-0.3,0-0.6-0.2-1.1-0.7L89.1,97c-0.5-0.5-1.1-0.8-1.9-0.8c-0.5,0-1.1,0.1-1.5,0.4c-0.9,0.5-1.9,1-3.1,1.5c-1.1,0.5-2.2,0.8-3.2,1.1
	c-1.3,0.4-2.2,1.4-2.2,2.7v4C77.3,107.5,77.3,107.8,71.4,107.8z"/>
<path class="st1" d="M46.5,96.9c-1.2,0-2.4-0.5-3.2-1.3c-1.8-1.8-1.8-4.7,0-6.5l13.5-13.5H16.2c-2.5,0-4.6-2-4.6-4.6
	c0-2.5,2-4.6,4.6-4.6h40.6L43.3,53c-1.8-1.8-1.8-4.7,0-6.4c0.9-0.9,2-1.3,3.2-1.3c1.2,0,2.4,0.5,3.2,1.3L74.3,71L49.7,95.6
	C48.9,96.4,47.7,96.9,46.5,96.9z"/>
</svg>
