<?xml version="1.0" encoding="utf-8"?>
<!-- Generator: Adobe Illustrator 24.1.0, SVG Export Plug-In . SVG Version: 6.00 Build 0)  -->
<svg version="1.1" id="Layer_1" xmlns="http://www.w3.org/2000/svg" xmlns:xlink="http://www.w3.org/1999/xlink" x="0px" y="0px"
	 viewBox="0 0 143 144" style="enable-background:new 0 0 143 144;" xml:space="preserve">
<style type="text/css">
	.st0{fill:#4D7BB9;}
	.st1{fill:#FFFFFF;}
</style>
<circle class="st0" cx="71.3" cy="73.1" r="70"/>
<g>
	<path class="st1" d="M120.4,71.5c0,5.6-0.9,11.1-2.8,16.4c-1.8,5.3-4.5,10.2-8,14.6c-0.6,0.7-1.4,1.2-2.3,1.3
		c-0.9,0.1-1.8-0.1-2.5-0.7c-0.8-0.6-1.3-1.6-1.3-2.7c0-0.8,0.3-1.5,0.7-2.1c3-3.8,5.3-8,6.9-12.6c1.6-4.5,2.4-9.3,2.4-14.2
		c0-11.5-4.5-22.3-12.6-30.4S82,28.4,70.5,28.4C59,28.4,48.2,32.9,40.1,41S27.5,60,27.5,71.5c0,11.5,4.5,22.3,12.6,30.4
		c8.1,8.1,18.9,12.6,30.4,12.6h1.4v-8.8L89.1,118l-17.2,12.2v-8.8h-1.4c-13.3,0-25.9-5.2-35.3-14.6c-9.4-9.4-14.6-22-14.6-35.3
		c0-13.3,5.2-25.9,14.6-35.3c9.4-9.4,22-14.6,35.3-14.6c13.3,0,25.9,5.2,35.3,14.6C115.2,45.6,120.4,58.1,120.4,71.5z"/>
	<g>
		<path class="st1" d="M63,57.3v-7.1c0-4,3.2-7.2,7.2-7.2h1.7c4,0,7.2,3.2,7.2,7.2v7.1c1.8,0.6,3.7,1.3,5.8,1.9v-9
			c0-7.2-5.8-13-13-13h-1.7c-7.2,0-13,5.8-13,13v9C59.3,58.6,61.2,58,63,57.3z"/>
		<path class="st1" d="M90.4,65.3c-8.9-1-19.3-6.1-19.3-6.1s-10.4,5.1-19.3,6.1c1.5,8.3-4.5,33.4,19.3,33.4
			C94.9,98.7,88.9,73.6,90.4,65.3z M81,90.3c-2.2,2.2-5.5,3.3-10,3.3c-4.5,0-7.7-1.1-10-3.3C57,86.2,57,78.5,57,72.9
			c0-1.3,0-2.5,0-3.6c5.8-1.1,11.7-3.6,14.1-4.6c2.4,1.1,8.3,3.6,14.1,4.6c0,1.1,0,2.3,0,3.6C85.1,78.5,85.1,86.2,81,90.3z"/>
		<path class="st1" d="M74.7,76c0-2-1.6-3.7-3.7-3.7c-2,0-3.7,1.6-3.7,3.7c0,1.2,0.6,2.3,1.5,2.9v4.5c0,1.2,1,2.2,2.2,2.2
			c1.2,0,2.2-1,2.2-2.2v-4.5C74.1,78.2,74.7,77.2,74.7,76z"/>
	</g>
</g>
</svg>
