<?xml version="1.0" encoding="utf-8"?>
<!-- Generator: Adobe Illustrator 24.1.0, SVG Export Plug-In . SVG Version: 6.00 Build 0)  -->
<svg version="1.1" id="Layer_1" xmlns="http://www.w3.org/2000/svg" xmlns:xlink="http://www.w3.org/1999/xlink" x="0px" y="0px"
	 viewBox="0 0 143 144" style="enable-background:new 0 0 143 144;" xml:space="preserve">
<style type="text/css">
	.st0{fill:#4D7BB9;}
	.st1{fill:#FFFFFF;}
	.st2{fill:none;stroke:#FFFFFF;stroke-width:1.96;stroke-linejoin:round;stroke-miterlimit:10;}
</style>
<circle class="st0" cx="71.3" cy="72.1" r="70"/>
<path class="st1" d="M71.3,17.5c-30.3,0-54.9,24.6-54.9,54.9s24.6,54.9,54.9,54.9s54.9-24.6,54.9-54.9S101.6,17.5,71.3,17.5z
	 M71.3,121.7C44.1,121.7,22,99.6,22,72.4s22.1-49.3,49.3-49.3s49.3,22.1,49.3,49.3S98.5,121.7,71.3,121.7z"/>
<path class="st1" d="M85.1,75c-2.3-2.1-5.6-3.8-10.6-5.3V51.2c3,0.3,5.8,1.3,7.9,2.7l4.3-4.3c-3.1-2.5-7.5-4.1-12.2-4.5v-3.4
	c0-1.7-1.4-3.1-3-3.1c-1.7,0-3.1,1.4-3.1,3.1v3.6c-1.4,0.2-2.7,0.6-3.9,1c-2.7,1-4.9,2.4-6.5,4.3c-1.4,1.7-2.4,3.6-2.9,5.7H39.8
	c-1.4,0-2.4,1-2.4,2.2c0,1.2,1.1,2.2,2.4,2.2h15.1h4h1.3L55,62.2c0.3,1.8,0.9,3.4,1.8,4.8H28.7c-1.4,0-2.4,0.9-2.4,2
	c0,1.1,1.1,2,2.4,2h32.4h3.4h2.1l-3.7,1c1.6,0.8,3.4,1.5,5.5,2.2v3.7H36.3c-1.4,0-2.4,0.9-2.4,2c0,1.1,1.1,2,2.4,2h32.2h3h1L68.5,83
	v9.7c-3.2-0.4-6.2-1.5-8.4-3l-4.3,4.3c3.3,2.6,7.9,4.3,12.7,4.8v3.5c0,1.7,1.4,3.1,3.1,3.1c1.7,0,3-1.4,3-3.1v-3.5
	c1.6-0.2,3.2-0.6,4.6-1.1c2.7-1,4.9-2.5,6.6-4.4c2.1-2.4,3.1-5.4,3.1-8.9C88.8,80.4,87.7,77.5,85.1,75z M62.8,64.7
	c-1.3-1.2-1.9-2.7-1.9-5.1c0-2,0.6-3.7,1.8-5c1-1.1,2.3-2,4-2.6c0.6-0.2,1.2-0.4,1.8-0.5v16.3C65.8,66.8,64,65.8,62.8,64.7z
	 M81.1,89.4c-1,1.2-2.3,2-4,2.6c-0.8,0.3-1.6,0.5-2.5,0.7V76c3,1,5.1,2.1,6.4,3.4c1.3,1.2,1.8,2.8,1.8,5.1
	C82.8,86.5,82.2,88.1,81.1,89.4z"/>
<polyline class="st2" points="99.5,74 108.2,74 108.2,77.5 115.1,71.4 108.2,65.4 108.2,68.8 104.7,68.8 "/>
<polyline class="st2" points="84.5,67.1 93.2,67.1 93.2,72.3 103.6,62.7 93.2,52.3 93.2,58.4 77.6,58.4 "/>
</svg>
