<?xml version="1.0" encoding="utf-8"?>
<!-- Generator: Adobe Illustrator 24.1.0, SVG Export Plug-In . SVG Version: 6.00 Build 0)  -->
<svg version="1.1" id="Layer_1" xmlns="http://www.w3.org/2000/svg" xmlns:xlink="http://www.w3.org/1999/xlink" x="0px" y="0px"
	 viewBox="0 0 143 144" style="enable-background:new 0 0 143 144;" xml:space="preserve">
<style type="text/css">
	.st0{fill:#4D7BB9;}
	.st1{fill:#FFFFFF;}
</style>
<circle class="st0" cx="71.3" cy="73.1" r="70"/>
<g>
	<path class="st1" d="M33.7,104.1v-3c0-10,7.8-18.1,17.6-18.7l2.4-2.4c-0.1-0.1-0.1-0.2-0.2-0.3L39.8,66.1c-0.8-0.8-1.3-1.9-1.3-3.1
		c0,0,0-0.1,0-0.1c4.2-1.1,8.5-2,12.7-2.6c0.3,5.9,3.3,11.1,7.7,14.5l2.7-2.7c-3.8-2.8-6.4-7.3-6.5-12.3c5.2-0.7,10.6-1,15.8-1
		c1.3,0,2.6,0,4,0.1l3.7-3.7c-2.6-0.2-5.1-0.2-7.7-0.2c-5.4,0-10.8,0.3-16.2,1c-0.9,0.1-1.9,0.2-2.8,0.4c-3.4,0.5-6.9,1.2-10.3,1.9
		l25.9-25.9c0.9-0.9,2.2-1.4,3.5-1.4s2.6,0.5,3.5,1.4l13.5,13.5l2.7-2.7L77.2,29.7c-1.7-1.7-3.9-2.6-6.2-2.6s-4.6,0.9-6.2,2.6
		L37.1,57.3c-0.8,0.8-1.4,1.8-1.8,2.8c-0.4,1-0.6,2.1-0.6,3.2c0.1,2.1,0.9,4.1,2.4,5.5L47.2,79c-10,2-17.4,10.9-17.4,21.2v5.4h3.6
		L33.7,104.1z"/>
	<path class="st1" d="M94.7,79l10.1-10.1c1.5-1.5,2.3-3.5,2.4-5.5c0-0.1,0-0.2,0-0.2c0-1-0.2-2-0.6-3c-0.4-1.1-1-2-1.8-2.8l-8.9-8.9
		l-2.7,2.7l7.2,7.2c-3.4-0.8-6.9-1.4-10.3-1.9c-0.6-0.1-1.2-0.2-1.9-0.3l-3.5,3.5c0.7,0.1,1.4,0.1,2.1,0.2
		c-0.3,8.5-7.3,15.3-15.8,15.3c-0.6,0-1.2,0-1.7-0.1l-3.3,3.3c1.6,0.4,3.3,0.7,5,0.7c10.4,0,19.1-8.3,19.7-18.6
		c4.2,0.7,8.5,1.6,12.7,2.6c0,0,0,0.1,0,0.1c0,1.2-0.4,2.2-1.3,3.1L88.4,79.8c-0.4,0.4-0.6,1.1-0.3,1.7c0.2,0.6,0.8,0.9,1.4,0.9h1
		c9.8,0,17.7,8,17.7,17.7v5.4h3.9v-5.4C112.1,89.9,104.7,81,94.7,79z"/>
</g>
<rect x="15.9" y="70.2" transform="matrix(0.7071 -0.7071 0.7071 0.7071 -30.7203 70.1634)" class="st1" width="106.9" height="3.9"/>
<path class="st1" d="M71.3,18C41,18,16.4,42.6,16.4,72.9c0,24.6,16.2,45.4,38.6,52.4c-0.3-1.2-0.5-2.5-0.6-3.8c-0.1-0.8,0-1.6,0-2.3
	C35.5,112.2,22,94.1,22,72.9c0-27.2,22.1-49.3,49.3-49.3s49.3,22.1,49.3,49.3c0,21.5-13.8,39.7-33,46.5c0.1,2.1-0.1,4.1-0.5,6.1
	c22.6-6.8,39.1-27.8,39.1-52.6C126.2,42.6,101.5,18,71.3,18z"/>
<g>
	<path class="st1" d="M65.5,107.2v-4.7c0-2.6,2.1-4.7,4.7-4.7h1.1c2.6,0,4.7,2.1,4.7,4.7v4.7c1.2,0.4,2.4,0.9,3.8,1.2v-5.9
		c0-4.7-3.8-8.5-8.5-8.5h-1.1c-4.7,0-8.5,3.8-8.5,8.5v5.9C63.1,108.1,64.4,107.6,65.5,107.2z"/>
	<path class="st1" d="M83.4,112.4c-5.8-0.6-12.6-4-12.6-4s-6.8,3.3-12.6,4c1,5.4-2.9,21.8,12.6,21.8
		C86.4,134.2,82.5,117.8,83.4,112.4z M77.3,128.7c-1.5,1.5-3.6,2.2-6.5,2.2c-2.9,0-5.1-0.7-6.5-2.2c-2.7-2.7-2.7-7.7-2.7-11.4
		c0-0.9,0-1.7,0-2.4c3.8-0.7,7.7-2.3,9.2-3c1.6,0.7,5.4,2.3,9.2,3c0,0.7,0,1.5,0,2.4C80,121,80,126.1,77.3,128.7z"/>
	<path class="st1" d="M73.2,119.4c0-1.3-1.1-2.4-2.4-2.4c-1.3,0-2.4,1.1-2.4,2.4c0,0.8,0.4,1.5,1,1.9v2.9c0,0.8,0.6,1.4,1.4,1.4
		c0.8,0,1.4-0.6,1.4-1.4v-2.9C72.8,120.8,73.2,120.2,73.2,119.4z"/>
</g>
</svg>
