<?xml version="1.0" encoding="utf-8"?>
<!-- Generator: Adobe Illustrator 24.1.0, SVG Export Plug-In . SVG Version: 6.00 Build 0)  -->
<svg version="1.1" id="Layer_1" xmlns="http://www.w3.org/2000/svg" xmlns:xlink="http://www.w3.org/1999/xlink" x="0px" y="0px"
	 viewBox="0 0 143 144" style="enable-background:new 0 0 143 144;" xml:space="preserve">
<style type="text/css">
	.st0{fill:#4D7BB9;}
	.st1{fill:#FFFFFF;}
</style>
<circle class="st0" cx="71.3" cy="72.1" r="70"/>
<g>
	<g>
		<path class="st1" d="M78.3,19.2c-0.7-0.8-1.6-1.2-2.6-1.2c-0.8,0-1.7,0.3-2.3,0.9L53.9,35.9H62l13.5-11.9l3.8,4.3l4-3.5L78.3,19.2
			z"/>
		<path class="st1" d="M58,19.2c-0.7-0.8-1.6-1.2-2.6-1.2c-0.8,0-1.7,0.3-2.3,0.9L33.6,35.9h8.1l13.5-11.9l3.8,4.3l4-3.5L58,19.2z"
			/>
		<path class="st1" d="M106.8,35.9h-7.1l-7.6-8.7l-1.8,1.6l-4,3.5l-4.1,3.6h-8.1l8.6-7.6l4-3.5l3.2-2.8c0.6-0.6,1.4-0.9,2.3-0.9
			c1,0,2,0.4,2.6,1.2L106.8,35.9z"/>
	</g>
	<g>
		<path class="st1" d="M57.7,91.4"/>
		<path class="st1" d="M108.1,60.9v-15c0-0.3-0.3-0.6-0.6-0.6H32.8c-0.3,0-0.6,0.3-0.6,0.6v59.6c0,0.3,0.3,0.6,0.6,0.6h74.7
			c0.3,0,0.6-0.3,0.6-0.6v-15h5.6v15c0,3.4-2.8,6.2-6.2,6.2H32.8c-3.4,0-6.2-2.8-6.2-6.2V45.9c0-3.4,2.8-6.2,6.2-6.2h74.7
			c3.4,0,6.2,2.8,6.2,6.2v15H108.1z"/>
		<path class="st1" d="M114,60.9H88.9c-3.4,0-6.2,2.8-6.2,6.2v17.2c0,3.4,2.8,6.2,6.2,6.2H114c3.4,0,6.2-2.8,6.2-6.2V67.1
			C120.1,63.7,117.3,60.9,114,60.9z M114.5,84.3c0,0.3-0.3,0.6-0.6,0.6H88.9c-0.3,0-0.6-0.3-0.6-0.6V67.1c0-0.3,0.2-0.6,0.6-0.6H114
			c0.3,0,0.6,0.3,0.6,0.6V84.3z"/>
		<path class="st1" d="M103.4,75.7c0,2.5-2,4.5-4.5,4.5c-2.5,0-4.5-2-4.5-4.5c0-2.5,2-4.5,4.5-4.5C101.4,71.2,103.4,73.2,103.4,75.7
			z"/>
	</g>
</g>
</svg>
