<?xml version="1.0" encoding="utf-8"?>
<!-- Generator: Adobe Illustrator 24.1.0, SVG Export Plug-In . SVG Version: 6.00 Build 0)  -->
<svg version="1.1" id="Layer_1" xmlns="http://www.w3.org/2000/svg" xmlns:xlink="http://www.w3.org/1999/xlink" x="0px" y="0px"
	 viewBox="0 0 143 144" style="enable-background:new 0 0 143 144;" xml:space="preserve">
<style type="text/css">
	.st0{fill:#4D7BB9;}
	.st1{fill:#FFFFFF;}
	.st2{fill:none;stroke:#FFFFFF;stroke-width:5.0707;stroke-linecap:round;stroke-miterlimit:10;}
</style>
<circle class="st0" cx="71.3" cy="73.1" r="70"/>
<g>
	<path class="st1" d="M72.9,70.6V57.3c2.5,0.3,4.8,1.1,6.3,2.5c0.4,0.3,0.9,0.5,1.4,0.5c0.6,0,1.2-0.3,1.7-0.8
		c0.4-0.4,0.6-1,0.5-1.6c0-0.6-0.3-1.1-0.8-1.5c-2.3-2-5.6-3.3-9.2-3.6v-2.4c0-1.2-1-2.2-2.2-2.2c-1.2,0-2.2,1-2.2,2.2V53
		c-1,0.2-1.9,0.4-2.8,0.7c-1.9,0.7-3.5,1.8-4.7,3.1c-1.5,1.8-2.3,4-2.3,6.5c0,3,0.8,5.1,2.7,6.8c1.5,1.5,3.8,2.7,7.2,3.7v13.4
		c-2.6-0.3-5.1-1.3-6.7-2.7c-0.4-0.4-0.9-0.5-1.4-0.5c-0.6,0-1.3,0.3-1.7,0.8c-0.4,0.5-0.6,1-0.5,1.6c0,0.6,0.3,1.1,0.8,1.5
		c2.4,2.1,5.9,3.4,9.6,3.8v2.5c0,1.2,1,2.2,2.2,2.2c1.2,0,2.2-1,2.2-2.2v-2.5c1.2-0.2,2.3-0.4,3.3-0.8c1.9-0.7,3.6-1.8,4.7-3.2
		c1.5-1.8,2.3-3.9,2.3-6.4c0-2.9-0.8-5.1-2.7-6.9C78.9,73,76.4,71.7,72.9,70.6z M68.5,69.3c-1.9-0.7-3.3-1.4-4.1-2.3
		c-0.9-0.9-1.3-2-1.3-3.7c0-1.4,0.4-2.7,1.3-3.6c0.7-0.8,1.7-1.5,2.9-1.9c0.4-0.1,0.9-0.3,1.3-0.4V69.3z M77.6,84.9
		c-0.7,0.8-1.7,1.5-2.9,1.9c-0.6,0.2-1.2,0.4-1.8,0.5v-12c2.2,0.7,3.7,1.5,4.6,2.4c0.9,0.9,1.3,2,1.3,3.7
		C78.8,82.8,78.4,84,77.6,84.9z"/>
	<path class="st2" d="M71,21.8c-28,0-50.7,22.7-50.7,50.7v2.5h-5.1l12.7,17.7L38,75.1h-5.1v-2.5c0-21,17-38,38-38
		c13.5,0,25.4,7.1,32.2,17.7"/>
	<path class="st2" d="M71.2,123.2c28,0,50.5-22.7,50.5-50.7V70h5.1l-12.7-17.7L103.9,70h5.1v2.5c0,21-16.6,38-37.6,38
		c-13.5,0-25.4-7.1-32.2-17.7"/>
</g>
</svg>
